<svg xmlns="http://www.w3.org/2000/svg" width="599" height="118" viewBox="0 0 599 118" role="img" aria-label="Close to the context limit — the ramp changes the bar's shape, not only its colour">
<rect width="599" height="118" rx="8" fill="#1e1e2e"/>
<text x="10" y="18" font-family="-apple-system,Segoe UI,system-ui,sans-serif" font-size="12" fill="#9399b2">Close to the context limit — the ramp changes the bar's shape, not only its colour</text>
<rect x="10.00" y="36" width="147.00" height="22" fill="rgb(69,71,90)"/>
<path d="M0 994Q0 1048 38.0 1086.0Q76 1124 132 1126H376Q406 1126 434 1112Q462 1098 480 1072L548 982Q554 976 562 976H1068Q1124 976 1162.0 938.0Q1200 900 1200 844V206Q1200 152 1162.0 114.0Q1124 76 1068 74H132Q78 74 38 114Q0 152 0 206ZM132 1012Q124 1012 118 1008Q114 1002 114 994V206Q114 198 118 194Q124 188 132 188H1068Q1076 188 1082 194Q1088 200 1088 206V844Q1088 852 1083.0 857.0Q1078 862 1068 862H562Q532 862 504.0 876.0Q476 890 458 914L390 1006Q384 1012 376 1012Z" fill="rgb(205,214,244)" transform="translate(19.80 52.00) scale(0.00821 -0.00821)"/>
<text x="44.30" y="52" text-anchor="middle" font-family="ui-monospace,SFMono-Regular,Menlo,Consolas,monospace" font-size="16" fill="rgb(205,214,244)">s</text>
<text x="54.10" y="52" text-anchor="middle" font-family="ui-monospace,SFMono-Regular,Menlo,Consolas,monospace" font-size="16" fill="rgb(205,214,244)">t</text>
<text x="63.90" y="52" text-anchor="middle" font-family="ui-monospace,SFMono-Regular,Menlo,Consolas,monospace" font-size="16" fill="rgb(205,214,244)">a</text>
<text x="73.70" y="52" text-anchor="middle" font-family="ui-monospace,SFMono-Regular,Menlo,Consolas,monospace" font-size="16" fill="rgb(205,214,244)">t</text>
<text x="83.50" y="52" text-anchor="middle" font-family="ui-monospace,SFMono-Regular,Menlo,Consolas,monospace" font-size="16" fill="rgb(205,214,244)">u</text>
<text x="93.30" y="52" text-anchor="middle" font-family="ui-monospace,SFMono-Regular,Menlo,Consolas,monospace" font-size="16" fill="rgb(205,214,244)">s</text>
<text x="103.10" y="52" text-anchor="middle" font-family="ui-monospace,SFMono-Regular,Menlo,Consolas,monospace" font-size="16" fill="rgb(205,214,244)">l</text>
<text x="112.90" y="52" text-anchor="middle" font-family="ui-monospace,SFMono-Regular,Menlo,Consolas,monospace" font-size="16" fill="rgb(205,214,244)">i</text>
<text x="122.70" y="52" text-anchor="middle" font-family="ui-monospace,SFMono-Regular,Menlo,Consolas,monospace" font-size="16" fill="rgb(205,214,244)">n</text>
<text x="132.50" y="52" text-anchor="middle" font-family="ui-monospace,SFMono-Regular,Menlo,Consolas,monospace" font-size="16" fill="rgb(205,214,244)">e</text>
<rect x="157.00" y="36" width="9.80" height="22" fill="rgb(180,190,254)"/>
<path d="M-72 1812H13L1200 602L13 -612H-72Z" fill="rgb(69,71,90)" transform="translate(157.00 52.00) scale(0.00821 -0.00821)"/>
<rect x="166.80" y="36" width="78.40" height="22" fill="rgb(180,190,254)"/>
<path d="M750 1076Q750 1168 816.0 1234.0Q882 1300 975.0 1300.0Q1068 1300 1134.0 1234.0Q1200 1168 1200 1076Q1200 1004 1158 944Q1116 886 1049 864V800Q1049 698 976 624Q903 550 800 550H400Q359 550 329 522Q299 492 300 450V338Q366 314 408.0 256.0Q450 198 450 126Q450 32 384.0 -34.0Q318 -100 225 -100Q132 -100 66 -34Q0 32 0 126Q0 198 42.0 256.0Q84 314 150 338V864Q84 888 42.0 946.0Q0 1004 0 1076Q0 1168 66.0 1234.0Q132 1300 225.0 1300.0Q318 1300 384.0 1234.0Q450 1168 450 1076Q450 1004 408.0 946.0Q366 888 300 864V680Q348 700 400 700H800Q841 700 871.0 730.0Q901 760 900 800V864Q834 888 792.0 946.0Q750 1004 750 1076ZM225 1000Q255 1000 277.0 1022.0Q299 1044 300 1076Q300 1106 278.0 1128.0Q256 1150 225.0 1150.0Q194 1150 172.0 1128.0Q150 1106 150.0 1075.0Q150 1044 172.0 1022.0Q194 1000 225 1000ZM975 1000Q1005 1000 1027.0 1022.0Q1049 1044 1049.0 1075.0Q1049 1106 1028 1128Q1006 1150 975.0 1150.0Q944 1150 922.0 1128.0Q900 1106 900.0 1075.0Q900 1044 922.0 1022.0Q944 1000 975 1000ZM225 50Q255 50 277 72Q299 94 300 126Q300 156 278.0 178.0Q256 200 225.0 200.0Q194 200 172.0 178.0Q150 156 150.0 125.0Q150 94 172.0 72.0Q194 50 225 50Z" fill="rgb(17,17,27)" transform="translate(176.60 52.00) scale(0.00821 -0.00821)"/>
<text x="201.10" y="52" text-anchor="middle" font-family="ui-monospace,SFMono-Regular,Menlo,Consolas,monospace" font-size="16" fill="rgb(17,17,27)">m</text>
<text x="210.90" y="52" text-anchor="middle" font-family="ui-monospace,SFMono-Regular,Menlo,Consolas,monospace" font-size="16" fill="rgb(17,17,27)">a</text>
<text x="220.70" y="52" text-anchor="middle" font-family="ui-monospace,SFMono-Regular,Menlo,Consolas,monospace" font-size="16" fill="rgb(17,17,27)">i</text>
<text x="230.50" y="52" text-anchor="middle" font-family="ui-monospace,SFMono-Regular,Menlo,Consolas,monospace" font-size="16" fill="rgb(17,17,27)">n</text>
<rect x="245.20" y="36" width="9.80" height="22" fill="rgb(243,139,168)"/>
<path d="M-72 1812H13L1200 602L13 -612H-72Z" fill="rgb(180,190,254)" transform="translate(245.20 52.00) scale(0.00821 -0.00821)"/>
<rect x="255.00" y="36" width="49.00" height="22" fill="rgb(243,139,168)"/>
<path d="M482 1099Q507 1145 553 1162Q600 1179 647.0 1162.0Q694 1145 718 1099L1184 226Q1200 196 1200 163Q1200 107 1160 68Q1121 29 1066 29H134Q79 29 39 68Q0 107 0 163Q0 196 16 226ZM617 1045Q612 1055 600.0 1055.0Q588 1055 583 1045L117 172Q114 167 115 163Q115 155 120 150Q126 144 134 144H1066Q1074 144 1080.0 150.0Q1086 156 1085 163Q1085 167 1083 172ZM657 738V546Q657 522 640 506Q623 489 600.0 489.0Q577 489 560.0 506.0Q543 523 543 546V738Q543 761 560 779Q577 796 600 795Q623 795 640 779Q657 761 657 738ZM600 412Q631 412 654 390Q677 367 677.0 336.0Q677 305 654.0 282.0Q631 259 600.0 259.0Q569 259 546.0 282.0Q523 305 523.0 336.0Q523 367 546.0 390.0Q569 413 600 412Z" fill="rgb(17,17,27)" transform="translate(264.80 52.00) scale(0.00821 -0.00821)"/>
<text x="289.30" y="52" text-anchor="middle" font-family="ui-monospace,SFMono-Regular,Menlo,Consolas,monospace" font-size="16" fill="rgb(17,17,27)">2</text>
<path d="M-72 1812H13L1200 602L13 -612H-72Z" fill="rgb(243,139,168)" transform="translate(304.00 52.00) scale(0.00821 -0.00821)"/>
<rect x="10.00" y="61" width="147.00" height="22" fill="rgb(243,139,168)"/>
<path d="M600 1144Q646 1144 678.0 1112.0Q710 1080 710 1037Q710 1006 694.0 980.5Q678 955 654 943V874H710Q812 874 900.0 821.5Q988 769 1039.0 682.0Q1090 595 1090 490H1144Q1166 490 1183.0 475.0Q1200 460 1200 437V274Q1200 251 1183.0 235.5Q1166 220 1144 220H1090V164Q1090 120 1058.0 88.0Q1026 56 980 56H220Q174 56 142.0 88.0Q110 120 110 164V220H56Q34 220 17.0 235.0Q0 250 0 274V437Q0 460 16.0 475.0Q32 490 56 490H110Q110 595 161.0 682.0Q212 769 300.0 821.5Q388 874 490 874H546V943Q522 956 506.0 981.0Q490 1006 490 1037Q490 1081 522.0 1112.5Q554 1144 600 1144ZM354 546Q298 546 259.0 505.5Q220 465 220.0 409.0Q220 353 259.0 313.5Q298 274 354.0 274.0Q410 274 450.0 313.5Q490 353 490.0 409.0Q490 465 450.0 505.5Q410 546 354 546ZM846 546Q790 546 750.0 505.5Q710 465 710.0 409.0Q710 353 749.0 313.5Q788 274 844.0 274.0Q900 274 940.0 313.5Q980 353 980.0 409.0Q980 465 941.0 505.5Q902 546 846 546Z" fill="rgb(17,17,27)" transform="translate(19.80 77.00) scale(0.00821 -0.00821)"/>
<text x="44.30" y="77" text-anchor="middle" font-family="ui-monospace,SFMono-Regular,Menlo,Consolas,monospace" font-size="16" fill="rgb(17,17,27)">S</text>
<text x="54.10" y="77" text-anchor="middle" font-family="ui-monospace,SFMono-Regular,Menlo,Consolas,monospace" font-size="16" fill="rgb(17,17,27)">o</text>
<text x="63.90" y="77" text-anchor="middle" font-family="ui-monospace,SFMono-Regular,Menlo,Consolas,monospace" font-size="16" fill="rgb(17,17,27)">n</text>
<text x="73.70" y="77" text-anchor="middle" font-family="ui-monospace,SFMono-Regular,Menlo,Consolas,monospace" font-size="16" fill="rgb(17,17,27)">n</text>
<text x="83.50" y="77" text-anchor="middle" font-family="ui-monospace,SFMono-Regular,Menlo,Consolas,monospace" font-size="16" fill="rgb(17,17,27)">e</text>
<text x="93.30" y="77" text-anchor="middle" font-family="ui-monospace,SFMono-Regular,Menlo,Consolas,monospace" font-size="16" fill="rgb(17,17,27)">t</text>
<text x="112.90" y="77" text-anchor="middle" font-family="ui-monospace,SFMono-Regular,Menlo,Consolas,monospace" font-size="16" fill="rgb(17,17,27)">5</text>
<rect x="157.00" y="61" width="9.80" height="22" fill="rgb(250,179,135)"/>
<path d="M-72 1812H13L1200 602L13 -612H-72Z" fill="rgb(243,139,168)" transform="translate(157.00 77.00) scale(0.00821 -0.00821)"/>
<rect x="166.80" y="61" width="78.40" height="22" fill="rgb(250,179,135)"/>
<path d="M993 1260 753 700H1101Q1131 700 1156.0 682.0Q1181 664 1193.0 635.0Q1205 606 1197 575Q1189 545 1167 525L367 -175Q339 -198 307 -200Q273 -202 243 -181Q215 -161 205 -126Q195 -92 209 -60L449 501H101Q71 501 45 518Q19 536 9 566Q-3 595 5.0 625.0Q13 655 35 676L835 1375Q861 1398 895.0 1400.0Q929 1402 959 1381Q987 1361 997 1327Q1007 1292 993 1260Z" fill="rgb(17,17,27)" transform="translate(176.60 77.00) scale(0.00821 -0.00821)"/>
<text x="201.10" y="77" text-anchor="middle" font-family="ui-monospace,SFMono-Regular,Menlo,Consolas,monospace" font-size="16" fill="rgb(17,17,27)">h</text>
<text x="210.90" y="77" text-anchor="middle" font-family="ui-monospace,SFMono-Regular,Menlo,Consolas,monospace" font-size="16" fill="rgb(17,17,27)">i</text>
<text x="220.70" y="77" text-anchor="middle" font-family="ui-monospace,SFMono-Regular,Menlo,Consolas,monospace" font-size="16" fill="rgb(17,17,27)">g</text>
<text x="230.50" y="77" text-anchor="middle" font-family="ui-monospace,SFMono-Regular,Menlo,Consolas,monospace" font-size="16" fill="rgb(17,17,27)">h</text>
<path d="M-72 1812H13L1200 602L13 -612H-72Z" fill="rgb(250,179,135)" transform="translate(245.20 77.00) scale(0.00821 -0.00821)"/>
<rect x="10.00" y="86" width="147.00" height="22" fill="rgb(243,139,168)"/>
<path d="M935 266H265V935H935ZM1200 666V800H1065V935Q1065 988 1026.0 1027.0Q987 1066 935 1066H800Q800 1065 800 1200H665V1066H534Q534 1065 534 1200H400V1066H265Q212 1066 173.5 1027.0Q135 988 135 935V800H0V666H135V534H0Q0 535 0 401H135V266Q135 213 174.0 174.0Q213 135 265 135H400V0H534V135H665V0H800V135H935Q988 135 1026.5 174.0Q1065 213 1065 266V401H1200V534H1065V666ZM665 534H534V666H665ZM800 800H400Q400 801 400 401H800Z" fill="rgb(17,17,27)" transform="translate(19.80 102.00) scale(0.00821 -0.00821)"/>
<text x="44.30" y="102" text-anchor="middle" font-family="ui-monospace,SFMono-Regular,Menlo,Consolas,monospace" font-size="16" fill="rgb(17,17,27)">C</text>
<text x="54.10" y="102" text-anchor="middle" font-family="ui-monospace,SFMono-Regular,Menlo,Consolas,monospace" font-size="16" fill="rgb(17,17,27)">o</text>
<text x="63.90" y="102" text-anchor="middle" font-family="ui-monospace,SFMono-Regular,Menlo,Consolas,monospace" font-size="16" fill="rgb(17,17,27)">n</text>
<text x="73.70" y="102" text-anchor="middle" font-family="ui-monospace,SFMono-Regular,Menlo,Consolas,monospace" font-size="16" fill="rgb(17,17,27)">t</text>
<text x="83.50" y="102" text-anchor="middle" font-family="ui-monospace,SFMono-Regular,Menlo,Consolas,monospace" font-size="16" fill="rgb(17,17,27)">e</text>
<text x="93.30" y="102" text-anchor="middle" font-family="ui-monospace,SFMono-Regular,Menlo,Consolas,monospace" font-size="16" fill="rgb(17,17,27)">x</text>
<text x="103.10" y="102" text-anchor="middle" font-family="ui-monospace,SFMono-Regular,Menlo,Consolas,monospace" font-size="16" fill="rgb(17,17,27)">t</text>
<text x="122.70" y="102" text-anchor="middle" font-family="ui-monospace,SFMono-Regular,Menlo,Consolas,monospace" font-size="16" fill="rgb(17,17,27)">9</text>
<text x="132.50" y="102" text-anchor="middle" font-family="ui-monospace,SFMono-Regular,Menlo,Consolas,monospace" font-size="16" fill="rgb(17,17,27)">2</text>
<text x="142.30" y="102" text-anchor="middle" font-family="ui-monospace,SFMono-Regular,Menlo,Consolas,monospace" font-size="16" fill="rgb(17,17,27)">%</text>
<rect x="157.00" y="86" width="9.80" height="22" fill="rgb(243,139,168)"/>
<path d="M-72 1812H13L1200 602L13 -612H-72Z" fill="rgb(243,139,168)" transform="translate(157.00 102.00) scale(0.00821 -0.00821)"/>
<rect x="166.80" y="86" width="107.80" height="22" fill="rgb(243,139,168)"/>
<path d="M600 32Q472 32 365.5 96.0Q259 160 197.0 266.0Q135 372 135.0 499.0Q135 626 197.0 733.0Q259 840 365.5 903.0Q472 966 600.0 966.0Q728 966 834.0 903.0Q940 840 1002.5 733.0Q1065 626 1065.0 499.0Q1065 372 1002.5 266.0Q940 160 834.0 96.0Q728 32 600 32ZM1068 872 1163 970Q1116 1022 1068 1062L975 966Q897 1028 800.0 1064.0Q703 1100 600 1100Q438 1100 300.5 1019.0Q163 938 81.5 800.0Q0 662 0.0 500.0Q0 338 81.5 199.0Q163 60 300.0 -20.0Q437 -100 599.5 -100.0Q762 -100 901.0 -20.0Q1040 60 1120.0 197.0Q1200 334 1200 500Q1200 602 1165.0 698.0Q1130 794 1068 872ZM534 430H665V832H534ZM800 1300H400V1166H800Z" fill="rgb(17,17,27)" transform="translate(176.60 102.00) scale(0.00821 -0.00821)"/>
<text x="201.10" y="102" text-anchor="middle" font-family="ui-monospace,SFMono-Regular,Menlo,Consolas,monospace" font-size="16" fill="rgb(17,17,27)">5</text>
<text x="210.90" y="102" text-anchor="middle" font-family="ui-monospace,SFMono-Regular,Menlo,Consolas,monospace" font-size="16" fill="rgb(17,17,27)">h</text>
<text x="230.50" y="102" text-anchor="middle" font-family="ui-monospace,SFMono-Regular,Menlo,Consolas,monospace" font-size="16" fill="rgb(17,17,27)">8</text>
<text x="240.30" y="102" text-anchor="middle" font-family="ui-monospace,SFMono-Regular,Menlo,Consolas,monospace" font-size="16" fill="rgb(17,17,27)">8</text>
<text x="250.10" y="102" text-anchor="middle" font-family="ui-monospace,SFMono-Regular,Menlo,Consolas,monospace" font-size="16" fill="rgb(17,17,27)">%</text>
<text x="259.90" y="102" text-anchor="middle" font-family="ui-monospace,SFMono-Regular,Menlo,Consolas,monospace" font-size="16" fill="rgb(17,17,27)">▲</text>
<rect x="274.60" y="86" width="9.80" height="22" fill="rgb(243,139,168)"/>
<path d="M-72 1812H13L1200 602L13 -612H-72Z" fill="rgb(243,139,168)" transform="translate(274.60 102.00) scale(0.00821 -0.00821)"/>
<rect x="284.40" y="86" width="107.80" height="22" fill="rgb(243,139,168)"/>
<path d="M387 1222V1115H815V1222Q815 1249 835 1267Q853 1286 879.0 1286.0Q905 1286 924.0 1267.0Q943 1248 943 1222V1115H1051Q1113 1115 1157.0 1071.0Q1201 1027 1201 965V64Q1201 1 1157 -42Q1113 -86 1051 -85H151Q89 -85 45 -42Q1 2 1 64V965Q1 1028 45 1071Q89 1115 151 1115H259V1222Q259 1249 277 1267Q297 1286 323.0 1286.0Q349 1286 368.0 1267.0Q387 1248 387 1222ZM129 643V64Q129 55 135.0 49.0Q141 43 151 43H1051Q1059 43 1067 49Q1071 55 1071 64V643ZM1051 986H151Q143 986 135 980Q129 974 129 965V771H1071V965Q1071 974 1067 980Q1059 986 1051 986Z" fill="rgb(17,17,27)" transform="translate(294.20 102.00) scale(0.00821 -0.00821)"/>
<text x="318.70" y="102" text-anchor="middle" font-family="ui-monospace,SFMono-Regular,Menlo,Consolas,monospace" font-size="16" fill="rgb(17,17,27)">7</text>
<text x="328.50" y="102" text-anchor="middle" font-family="ui-monospace,SFMono-Regular,Menlo,Consolas,monospace" font-size="16" fill="rgb(17,17,27)">d</text>
<text x="348.10" y="102" text-anchor="middle" font-family="ui-monospace,SFMono-Regular,Menlo,Consolas,monospace" font-size="16" fill="rgb(17,17,27)">9</text>
<text x="357.90" y="102" text-anchor="middle" font-family="ui-monospace,SFMono-Regular,Menlo,Consolas,monospace" font-size="16" fill="rgb(17,17,27)">6</text>
<text x="367.70" y="102" text-anchor="middle" font-family="ui-monospace,SFMono-Regular,Menlo,Consolas,monospace" font-size="16" fill="rgb(17,17,27)">%</text>
<text x="377.50" y="102" text-anchor="middle" font-family="ui-monospace,SFMono-Regular,Menlo,Consolas,monospace" font-size="16" fill="rgb(17,17,27)">▲</text>
<rect x="392.20" y="86" width="9.80" height="22" fill="rgb(88,91,112)"/>
<path d="M-72 1812H13L1200 602L13 -612H-72Z" fill="rgb(243,139,168)" transform="translate(392.20 102.00) scale(0.00821 -0.00821)"/>
<rect x="402.00" y="86" width="176.40" height="22" fill="rgb(88,91,112)"/>
<text x="421.60" y="102" text-anchor="middle" font-family="ui-monospace,SFMono-Regular,Menlo,Consolas,monospace" font-size="16" fill="rgb(205,214,244)">🕛</text>
<text x="446.10" y="102" text-anchor="middle" font-family="ui-monospace,SFMono-Regular,Menlo,Consolas,monospace" font-size="16" fill="rgb(205,214,244)">0</text>
<text x="455.90" y="102" text-anchor="middle" font-family="ui-monospace,SFMono-Regular,Menlo,Consolas,monospace" font-size="16" fill="rgb(205,214,244)">h</text>
<text x="465.70" y="102" text-anchor="middle" font-family="ui-monospace,SFMono-Regular,Menlo,Consolas,monospace" font-size="16" fill="rgb(205,214,244)">2</text>
<text x="475.50" y="102" text-anchor="middle" font-family="ui-monospace,SFMono-Regular,Menlo,Consolas,monospace" font-size="16" fill="rgb(205,214,244)">2</text>
<text x="485.30" y="102" text-anchor="middle" font-family="ui-monospace,SFMono-Regular,Menlo,Consolas,monospace" font-size="16" fill="rgb(205,214,244)">m</text>
<text x="504.90" y="102" text-anchor="middle" font-family="ui-monospace,SFMono-Regular,Menlo,Consolas,monospace" font-size="16" fill="rgb(205,214,244)">/</text>
<text x="524.50" y="102" text-anchor="middle" font-family="ui-monospace,SFMono-Regular,Menlo,Consolas,monospace" font-size="16" fill="rgb(205,214,244)">2</text>
<text x="534.30" y="102" text-anchor="middle" font-family="ui-monospace,SFMono-Regular,Menlo,Consolas,monospace" font-size="16" fill="rgb(205,214,244)">h</text>
<text x="544.10" y="102" text-anchor="middle" font-family="ui-monospace,SFMono-Regular,Menlo,Consolas,monospace" font-size="16" fill="rgb(205,214,244)">3</text>
<text x="553.90" y="102" text-anchor="middle" font-family="ui-monospace,SFMono-Regular,Menlo,Consolas,monospace" font-size="16" fill="rgb(205,214,244)">5</text>
<text x="563.70" y="102" text-anchor="middle" font-family="ui-monospace,SFMono-Regular,Menlo,Consolas,monospace" font-size="16" fill="rgb(205,214,244)">m</text>
<path d="M-72 1812H13L1200 602L13 -612H-72Z" fill="rgb(88,91,112)" transform="translate(578.40 102.00) scale(0.00821 -0.00821)"/>
</svg>
